# Blender 3.5.0
# www.blender.org
mtllib float_R_arm.mtl
o 立方体.001
v 2.159383 -2.023295 0.846884
v 0.907654 -0.023295 0.898844
v 0.943566 -2.023295 0.897353
v 0.161104 -0.023295 0.929833
v 2.076434 -2.023295 -1.151395
v 0.824705 -0.023295 -1.099435
v 0.860617 -2.023295 -1.100926
v 0.078155 -0.023295 -1.068446
vn 0.0415 -0.0000 0.9991
vn -0.9304 -0.3646 0.0386
vn -0.0415 -0.0000 -0.9991
vn 0.8467 0.5309 -0.0351
vn -0.0000 -1.0000 -0.0000
vn -0.0000 1.0000 -0.0000
vt 0.375000 0.000000
vt 0.375000 1.000000
vt 0.125000 0.750000
vt 0.625000 0.000000
vt 0.625000 1.000000
vt 0.875000 0.750000
vt 0.125000 0.500000
vt 0.375000 0.250000
vt 0.625000 0.250000
vt 0.875000 0.500000
vt 0.375000 0.750000
vt 0.625000 0.750000
vt 0.375000 0.500000
vt 0.625000 0.500000
s 0
f 2/4/1 3/8/1 1/1/1
f 4/9/2 7/13/2 3/8/2
f 7/13/3 6/12/3 5/11/3
f 6/12/4 1/2/4 5/11/4
f 7/13/5 1/3/5 3/7/5
f 4/10/6 6/12/6 8/14/6
f 2/4/1 4/9/1 3/8/1
f 4/9/2 8/14/2 7/13/2
f 7/13/3 8/14/3 6/12/3
f 6/12/4 2/5/4 1/2/4
f 7/13/5 5/11/5 1/3/5
f 4/10/6 2/6/6 6/12/6
