# Blender 3.5.0
# www.blender.org
mtllib hammer.mtl
o Cube
v 0.529633 18.384609 2.978875
v 0.519676 5.084064 3.111387
v 0.425386 15.589975 4.504964
v 0.490551 5.088341 3.538547
v 0.123751 18.384638 2.951201
v 0.113793 5.084092 3.083713
v 0.019504 15.590002 4.477290
v 0.084669 5.088370 3.510872
v 0.526113 13.681787 3.025729
v 0.017035 12.292002 4.510147
v 0.422917 12.291975 4.537822
v 0.120230 13.681816 2.998055
v 0.524352 11.330376 3.049156
v 0.421683 10.642973 4.554250
v 0.118470 11.330404 3.021482
v 0.015800 10.643000 4.526576
v 0.523472 10.154673 3.060869
v 0.494084 9.807745 3.491528
v 0.117589 10.154699 3.033195
v 0.088202 9.807774 3.463854
vn -0.0596 0.4801 0.8752
vn -0.0680 0.0100 0.9976
vn -0.9977 0.0001 -0.0680
vn -0.0007 -1.0000 0.0100
vn 0.9977 -0.0001 0.0680
vn 0.0680 -0.0100 -0.9976
vn -0.0420 -0.7869 0.6156
vt 0.751717 0.548397
vt 0.164879 0.874199
vt 0.553586 0.874199
vt 0.925391 0.505476
vt 0.553586 0.074609
vt 0.164880 0.074609
vt 0.751717 0.369840
vt 0.074609 0.705292
vt 0.139140 0.074609
vt 0.925391 0.074609
vt 0.925391 0.531215
vt 0.727261 0.548397
vt 0.404368 0.074609
vt 0.578042 0.874199
vt 0.900935 0.505476
vt 0.578042 0.074609
vt 0.404368 0.874199
vt 0.727261 0.369840
vt 0.314098 0.243516
vt 0.378629 0.874199
vt 0.900935 0.531215
vt 0.900935 0.074609
vt 0.553586 0.591479
vt 0.164879 0.591479
vt 0.314098 0.441783
vt 0.727261 0.173020
vt 0.074609 0.507026
vt 0.751717 0.173020
vt 0.578042 0.591479
vt 0.404368 0.357329
vt 0.164879 0.450119
vt 0.553586 0.450119
vt 0.751717 0.074609
vt 0.751717 0.762146
vt 0.074609 0.407893
vt 0.404368 0.498689
vt 0.578042 0.450119
vt 0.727261 0.074609
vt 0.727261 0.762146
vt 0.314098 0.540916
vt 0.553586 0.379439
vt 0.164879 0.379439
vt 0.751717 0.697615
vt 0.139140 0.358326
vt 0.925391 0.356257
vt 0.578042 0.379439
vt 0.404368 0.569369
vt 0.727261 0.697615
vt 0.378629 0.590482
vt 0.900935 0.356257
s 0
usemtl Material
f 5/12/1 3/7/1 1/1/1
f 3/7/2 10/26/2 11/28/2
f 7/19/3 12/30/3 10/25/3
f 2/4/4 8/21/4 6/15/4
f 9/24/5 3/8/5 11/27/5
f 5/14/6 9/23/6 12/29/6
f 12/29/6 13/32/6 15/37/6
f 13/31/5 11/27/5 14/35/5
f 10/25/3 15/36/3 16/40/3
f 11/28/2 16/38/2 14/33/2
f 14/34/7 20/48/7 18/43/7
f 16/40/3 19/47/3 20/49/3
f 17/42/5 14/35/5 18/44/5
f 15/37/6 17/41/6 19/46/6
f 19/46/6 2/5/6 6/16/6
f 2/6/5 18/44/5 4/9/5
f 20/49/3 6/17/3 8/20/3
f 18/45/2 8/22/2 4/10/2
f 5/12/1 7/18/1 3/7/1
f 3/7/2 7/18/2 10/26/2
f 7/19/3 5/13/3 12/30/3
f 2/4/4 4/11/4 8/21/4
f 9/24/5 1/2/5 3/8/5
f 5/14/6 1/3/6 9/23/6
f 12/29/6 9/23/6 13/32/6
f 13/31/5 9/24/5 11/27/5
f 10/25/3 12/30/3 15/36/3
f 11/28/2 10/26/2 16/38/2
f 14/34/7 16/39/7 20/48/7
f 16/40/3 15/36/3 19/47/3
f 17/42/5 13/31/5 14/35/5
f 15/37/6 13/32/6 17/41/6
f 19/46/6 17/41/6 2/5/6
f 2/6/5 17/42/5 18/44/5
f 20/49/3 19/47/3 6/17/3
f 18/45/2 20/50/2 8/22/2
